<svg t="1659260421578" class="icon" viewBox="0 0 1024 1024" version="1.1" xmlns="http://www.w3.org/2000/svg" p-id="2668" data-spm-anchor-id="a313x.7781069.0.i11" width="200" height="200"><path d="M232.533333 345.6l324.266667 320c17.066667 17.066667 17.066667 42.666667 0 59.733333l-117.333333 115.2c-17.066667 17.066667-42.666667 17.066667-59.733334 0l-324.266666-320c-17.066667-17.066667-17.066667-42.666667 0-59.733333l117.333333-115.2c14.933333-17.066667 42.666667-17.066667 59.733333 0z" fill="#ef7d36" p-id="2669" data-spm-anchor-id="a313x.7781069.0.i3" class=""></path><path d="M968.533333 315.733333L439.466667 840.533333c-17.066667 17.066667-42.666667 17.066667-59.733334 0L262.4 725.333333c-17.066667-17.066667-17.066667-42.666667 0-59.733333L791.466667 140.8c17.066667-17.066667 42.666667-17.066667 59.733333 0l117.333333 115.2c17.066667 17.066667 17.066667 42.666667 0 59.733333z" fill="#feaf46" p-id="2670" data-spm-anchor-id="a313x.7781069.0.i4" class="selected"></path></svg>